# xmcd
#
# Track frame offsets:
#	150
#	11165
#	23818
#	42451
#	53138
#	63180
#	78882
#	89425
#	103029
#	114660
#	124763
#	143887
#	158838
#	171957
#	182724
#	196653
#
# Disc length: 2739 seconds
# Revision: 0
# Processed by: cddbd v1.5.2PL0 Copyright (c) Steve Scherf et al.
# Submitted via: dBpowerAMP V12.0
#
DISCID=d20ab110
DTITLE=Various Artist - 32 Country Gospel Favorites [Disc 1]
DYEAR=2005
DGENRE=Gospel and Religious
TTITLE0=Acuff, Roy - I'm Building A Home (In The Sky)
TTITLE1=Louvin Brothers, The - Nearer, My God, To Thee
TTITLE2=Jackson, Wanda - Oh Happy Day
TTITLE3=Husky, Ferlin - I Believe
TTITLE4=Jordanaires, The - This Little Light Of Mine
TTITLE5=Curless, Dick - Whispering Hope
TTITLE6=Husky, Ferlin - Wings Of A Dove
TTITLE7=Shepard, Jean - It Is No Secret (What God Can Do)
TTITLE8=Gentry, Bobbie - Glory Hallelujah, How They'll Sing
TTITLE9=Husky, Ferlin - Somebody Touched Me
TTITLE10=Shenandoah - Wooden Cross
TTITLE11=James, Sonny - How Great Thou Art
TTITLE12=Ford, Tennessee Ernie - The Old Rugged Cross
TTITLE13=Jim and Jesse - Are You Lost In Sin
TTITLE14=Young, Faron - God Bless God
TTITLE15=Carter Family, The - Anchored In Love Divine
EXTD=
EXTT0=
EXTT1=
EXTT2=
EXTT3=
EXTT4=
EXTT5=
EXTT6=
EXTT7=
EXTT8=
EXTT9=
EXTT10=
EXTT11=
EXTT12=
EXTT13=
EXTT14=
EXTT15=
PLAYORDER=
